<svg xmlns="http://www.w3.org/2000/svg" xmlns:xlink="http://www.w3.org/1999/xlink" viewBox="0 0 668 668"><defs><linearGradient id="c" x1="50%" x2="50%" y1="0%" y2="100%"><stop offset="0%" stop-color="#2A3E59"/><stop offset="99.9950489%" stop-color="#1C2943"/></linearGradient><rect id="a" width="668" height="668" x="0" y="0" rx="129.882812"/></defs><g fill="none" fill-rule="evenodd"><mask id="b" fill="#fff"><use xlink:href="#a"/></mask><g mask="url(#b)"><path fill="url(#c)" d="M0 0h668v668H0z"/><path fill="#FFF" fill-rule="nonzero" d="M186.89793022 260.2851125c2.16213448.0030029 4.23766428-.8639219 5.76668758-2.4051215 1.5290233-1.5411995 2.3890989-3.6332578 2.3861197-5.8126103v-65.75985667c0-4.53931444-3.6493559-8.21772403-8.15280728-8.21772403s-8.15578647 3.67840959-8.15578647 8.21772403v65.75985667c0 2.1793525.85708941 4.2714108 2.38611269 5.8126103 1.53200946 1.5411996 3.60455312 2.4081244 5.76967378 2.4051215ZM276.9198781 178.0898c-18.1862547.02107051-32.9222474 14.7286919-32.9433593 32.8769207v16.4414711c0 18.1572595 14.7510731 32.8769207 32.9433593 32.8769207 18.1922859 0 32.9433599-14.7196612 32.9433599-32.8769207v-16.4414711c-.021112-18.1482288-14.757105-32.85585019-32.9433599-32.8769207Zm16.4701719 49.3183918c0 9.0786297-7.374029 16.4384603-16.4701719 16.4384603-9.0961431 0-16.4701714-7.3598306-16.4701714-16.4384603v-16.4414711c0-9.0786297 7.3740283-16.4384603 16.4701714-16.4384603 9.0961429 0 16.4701719 7.3598306 16.4701719 16.4384603v16.4414711Zm73.551776 32.8769207c2.165121.0030029 4.237664-.8639219 5.769674-2.4051215 1.529023-1.5411995 2.386112-3.6332578 2.386112-5.8126103v-65.75985667c0-4.53931444-3.652335-8.21772403-8.155786-8.21772403-4.503451 0-8.152807 3.67840959-8.152807 8.21772403v65.75985667c-.002979 2.1793525.857096 4.2714108 2.386119 5.8126103 1.529024 1.5411996 3.604554 2.4081244 5.766688 2.4051215ZM457.620605 178.0898c-18.187087.02107051-32.923755 14.7286919-32.944867 32.8769207v16.4414711c0 18.1572595 14.748731 32.8769207 32.944867 32.8769207 18.193119 0 32.941851-14.7196612 32.941851-32.8769207v-16.4414711c-.021112-18.1482288-14.75778-32.85585019-32.941851-32.8769207Zm16.470926 49.3183918c0 9.0786297-7.374366 16.4384603-16.470926 16.4384603-9.099576 0-16.473942-7.3598306-16.473942-16.4384603v-16.4414711c0-9.0786297 7.374366-16.4384603 16.473942-16.4384603 9.09656 0 16.470926 7.3598306 16.470926 16.4384603v16.4414711Zm8.318118 65.4941082c-2.165121 0-4.237664.863883-5.769674 2.405027-1.529023 1.544153-2.386113 3.633125-2.386113 5.815407v65.754444c0 4.539149 3.652336 8.220434 8.155787 8.220434s8.152807-3.681285 8.152807-8.220434v-65.754444c.002979-2.182282-.857096-4.271254-2.386119-5.815407-1.529024-1.541144-3.604554-2.405027-5.766688-2.405027Zm-57.733911 32.878727c0-18.159605-14.748732-32.878727-32.944868-32.878727-18.193119 0-32.941851 14.719122-32.941851 32.878727v16.437858c0 18.156595 14.748732 32.878727 32.941851 32.878727 18.196136 0 32.944868-14.722132 32.944868-32.878727v-16.437858Zm-16.470926 16.437858c0 9.078298-7.374366 16.437859-16.473942 16.437859-9.09656 0-16.470926-7.359561-16.470926-16.437859v-16.437858c0-9.081308 7.374366-16.440869 16.470926-16.440869 9.099576 0 16.473942 7.359561 16.473942 16.440869v16.437858ZM301.708941 292.9023c-2.16174 0-4.236891.863883-5.765635 2.405027-1.531729 1.544153-2.388662 3.633125-2.388662 5.815407v65.754444c0 4.539149 3.651668 8.220434 8.154297 8.220434 4.502628 0 8.154297-3.681285 8.154297-8.220434v-65.754444c0-2.182282-.856933-4.271254-2.388663-5.815407-1.528744-1.541144-3.603895-2.405027-5.765634-2.405027Zm-57.7324222 32.878727c0-18.159605-14.7487319-32.878727-32.9418511-32.878727-18.1961359 0-32.9448677 14.719122-32.9448677 32.878727v16.437858c0 18.156595 14.7487318 32.878727 32.9448677 32.878727 18.1931192 0 32.9418511-14.722132 32.9418511-32.878727v-16.437858Zm-16.4709256 16.437858c0 9.078298-7.3743659 16.437859-16.4709255 16.437859-9.0995763 0-16.4739422-7.359561-16.4739422-16.437859v-16.437858c0-9.081308 7.3743659-16.440869 16.4739422-16.440869 9.0965596 0 16.4709255 7.359561 16.4709255 16.440869v16.437858ZM186.89793022 407.7148c-2.16512066 0-4.23766432.863883-5.76967378 2.408036-1.52902328 1.541144-2.38611269 3.633125-2.38611269 5.812398v65.754444c0 4.539149 3.65233509 8.220434 8.15578647 8.220434 4.50345138 0 8.15280728-3.681285 8.15280728-8.220434v-65.754444c.0029792-2.179273-.8570964-4.271254-2.3861197-5.812398-1.5290233-1.544153-3.6045531-2.408036-5.76668758-2.408036Zm90.02194788 0c-18.1862547.021071-32.9222474 14.728152-32.9433593 32.878727v16.437858c0 18.159605 14.7510731 32.878727 32.9433593 32.878727 18.1922859 0 32.9433599-14.719122 32.9433599-32.878727v-16.437858c-.021112-18.150575-14.757105-32.857656-32.9433599-32.878727Zm16.4701719 49.316585c0 9.081308-7.374029 16.440869-16.4701719 16.440869-9.0961431 0-16.4701714-7.359561-16.4701714-16.440869v-16.437858c0-9.078297 7.3740283-16.437858 16.4701714-16.437858 9.0961429 0 16.4701719 7.359561 16.4701719 16.437858v16.437858Zm73.551776-49.316585c-2.162134 0-4.237664.863883-5.766688 2.408036-1.529023 1.541144-2.389098 3.633125-2.386119 5.812398v65.754444c0 4.539149 3.649356 8.220434 8.152807 8.220434 4.503451 0 8.155786-3.681285 8.155786-8.220434v-65.754444c0-2.179273-.857089-4.271254-2.386112-5.812398-1.53201-1.544153-3.604553-2.408036-5.769674-2.408036Zm90.678779 0c-18.187087.021071-32.923755 14.728152-32.944867 32.878727v16.437858c0 18.159605 14.748731 32.878727 32.944867 32.878727 18.193119 0 32.941851-14.719122 32.941851-32.878727v-16.437858c-.021112-18.150575-14.75778-32.857656-32.941851-32.878727Zm16.470926 49.316585c0 9.081308-7.374366 16.440869-16.470926 16.440869-9.099576 0-16.473942-7.359561-16.473942-16.440869v-16.437858c0-9.078297 7.374366-16.437858 16.473942-16.437858 9.09656 0 16.470926 7.359561 16.470926 16.437858v16.437858Z"/></g></g></svg>
