<svg xmlns="http://www.w3.org/2000/svg" xmlns:xlink="http://www.w3.org/1999/xlink" viewBox="0 0 3713.7 668"><defs><linearGradient id="c" x1="50%" x2="50%" y1="0%" y2="100%"><stop offset="0%" stop-color="#2A3E59"/><stop offset="99.9950489%" stop-color="#1C2943"/></linearGradient><rect id="a" width="668" height="668" x="0" y="0" rx="129.882812"/></defs><g fill="none" fill-rule="evenodd"><mask id="b" fill="#fff"><use xlink:href="#a"/></mask><g mask="url(#b)"><path fill="url(#c)" d="M0 0h668v668H0z"/><path fill="#FFF" fill-rule="nonzero" d="M186.89793022 260.2851125c2.16213448.0030029 4.23766428-.8639219 5.76668758-2.4051215 1.5290233-1.5411995 2.3890989-3.6332578 2.3861197-5.8126103v-65.75985667c0-4.53931444-3.6493559-8.21772403-8.15280728-8.21772403s-8.15578647 3.67840959-8.15578647 8.21772403v65.75985667c0 2.1793525.85708941 4.2714108 2.38611269 5.8126103 1.53200946 1.5411996 3.60455312 2.4081244 5.76967378 2.4051215ZM276.9198781 178.0898c-18.1862547.02107051-32.9222474 14.7286919-32.9433593 32.8769207v16.4414711c0 18.1572595 14.7510731 32.8769207 32.9433593 32.8769207 18.1922859 0 32.9433599-14.7196612 32.9433599-32.8769207v-16.4414711c-.021112-18.1482288-14.757105-32.85585019-32.9433599-32.8769207Zm16.4701719 49.3183918c0 9.0786297-7.374029 16.4384603-16.4701719 16.4384603-9.0961431 0-16.4701714-7.3598306-16.4701714-16.4384603v-16.4414711c0-9.0786297 7.3740283-16.4384603 16.4701714-16.4384603 9.0961429 0 16.4701719 7.3598306 16.4701719 16.4384603v16.4414711Zm73.551776 32.8769207c2.165121.0030029 4.237664-.8639219 5.769674-2.4051215 1.529023-1.5411995 2.386112-3.6332578 2.386112-5.8126103v-65.75985667c0-4.53931444-3.652335-8.21772403-8.155786-8.21772403-4.503451 0-8.152807 3.67840959-8.152807 8.21772403v65.75985667c-.002979 2.1793525.857096 4.2714108 2.386119 5.8126103 1.529024 1.5411996 3.604554 2.4081244 5.766688 2.4051215ZM457.620605 178.0898c-18.187087.02107051-32.923755 14.7286919-32.944867 32.8769207v16.4414711c0 18.1572595 14.748731 32.8769207 32.944867 32.8769207 18.193119 0 32.941851-14.7196612 32.941851-32.8769207v-16.4414711c-.021112-18.1482288-14.75778-32.85585019-32.941851-32.8769207Zm16.470926 49.3183918c0 9.0786297-7.374366 16.4384603-16.470926 16.4384603-9.099576 0-16.473942-7.3598306-16.473942-16.4384603v-16.4414711c0-9.0786297 7.374366-16.4384603 16.473942-16.4384603 9.09656 0 16.470926 7.3598306 16.470926 16.4384603v16.4414711Zm8.318118 65.4941082c-2.165121 0-4.237664.863883-5.769674 2.405027-1.529023 1.544153-2.386113 3.633125-2.386113 5.815407v65.754444c0 4.539149 3.652336 8.220434 8.155787 8.220434s8.152807-3.681285 8.152807-8.220434v-65.754444c.002979-2.182282-.857096-4.271254-2.386119-5.815407-1.529024-1.541144-3.604554-2.405027-5.766688-2.405027Zm-57.733911 32.878727c0-18.159605-14.748732-32.878727-32.944868-32.878727-18.193119 0-32.941851 14.719122-32.941851 32.878727v16.437858c0 18.156595 14.748732 32.878727 32.941851 32.878727 18.196136 0 32.944868-14.722132 32.944868-32.878727v-16.437858Zm-16.470926 16.437858c0 9.078298-7.374366 16.437859-16.473942 16.437859-9.09656 0-16.470926-7.359561-16.470926-16.437859v-16.437858c0-9.081308 7.374366-16.440869 16.470926-16.440869 9.099576 0 16.473942 7.359561 16.473942 16.440869v16.437858ZM301.708941 292.9023c-2.16174 0-4.236891.863883-5.765635 2.405027-1.531729 1.544153-2.388662 3.633125-2.388662 5.815407v65.754444c0 4.539149 3.651668 8.220434 8.154297 8.220434 4.502628 0 8.154297-3.681285 8.154297-8.220434v-65.754444c0-2.182282-.856933-4.271254-2.388663-5.815407-1.528744-1.541144-3.603895-2.405027-5.765634-2.405027Zm-57.7324222 32.878727c0-18.159605-14.7487319-32.878727-32.9418511-32.878727-18.1961359 0-32.9448677 14.719122-32.9448677 32.878727v16.437858c0 18.156595 14.7487318 32.878727 32.9448677 32.878727 18.1931192 0 32.9418511-14.722132 32.9418511-32.878727v-16.437858Zm-16.4709256 16.437858c0 9.078298-7.3743659 16.437859-16.4709255 16.437859-9.0995763 0-16.4739422-7.359561-16.4739422-16.437859v-16.437858c0-9.081308 7.3743659-16.440869 16.4739422-16.440869 9.0965596 0 16.4709255 7.359561 16.4709255 16.440869v16.437858ZM186.89793022 407.7148c-2.16512066 0-4.23766432.863883-5.76967378 2.408036-1.52902328 1.541144-2.38611269 3.633125-2.38611269 5.812398v65.754444c0 4.539149 3.65233509 8.220434 8.15578647 8.220434 4.50345138 0 8.15280728-3.681285 8.15280728-8.220434v-65.754444c.0029792-2.179273-.8570964-4.271254-2.3861197-5.812398-1.5290233-1.544153-3.6045531-2.408036-5.76668758-2.408036Zm90.02194788 0c-18.1862547.021071-32.9222474 14.728152-32.9433593 32.878727v16.437858c0 18.159605 14.7510731 32.878727 32.9433593 32.878727 18.1922859 0 32.9433599-14.719122 32.9433599-32.878727v-16.437858c-.021112-18.150575-14.757105-32.857656-32.9433599-32.878727Zm16.4701719 49.316585c0 9.081308-7.374029 16.440869-16.4701719 16.440869-9.0961431 0-16.4701714-7.359561-16.4701714-16.440869v-16.437858c0-9.078297 7.3740283-16.437858 16.4701714-16.437858 9.0961429 0 16.4701719 7.359561 16.4701719 16.437858v16.437858Zm73.551776-49.316585c-2.162134 0-4.237664.863883-5.766688 2.408036-1.529023 1.541144-2.389098 3.633125-2.386119 5.812398v65.754444c0 4.539149 3.649356 8.220434 8.152807 8.220434 4.503451 0 8.155786-3.681285 8.155786-8.220434v-65.754444c0-2.179273-.857089-4.271254-2.386112-5.812398-1.53201-1.544153-3.604553-2.408036-5.769674-2.408036Zm90.678779 0c-18.187087.021071-32.923755 14.728152-32.944867 32.878727v16.437858c0 18.159605 14.748731 32.878727 32.944867 32.878727 18.193119 0 32.941851-14.719122 32.941851-32.878727v-16.437858c-.021112-18.150575-14.75778-32.857656-32.941851-32.878727Zm16.470926 49.316585c0 9.081308-7.374366 16.440869-16.470926 16.440869-9.099576 0-16.473942-7.359561-16.473942-16.440869v-16.437858c0-9.078297 7.374366-16.437858 16.473942-16.437858 9.09656 0 16.470926 7.359561 16.470926 16.437858v16.437858Z"/></g><path fill="#FFF" fill-rule="nonzero" d="M983.925 465V229.0125h32.9875V465H983.925Zm-82.3375-212.8v-30.1H1099.25v30.1H901.5875Zm338.775 212.8v-96.775c0-12.775-3.922917-23.216667-11.76875-31.325-7.845833-8.108333-18.046875-12.1625-30.603125-12.1625-8.545833 0-16.089063 1.852083-22.629688 5.55625-6.540625 3.704167-11.66302 8.822917-15.367187 15.35625-3.704167 6.533333-5.55625 14.029167-5.55625 22.4875l-13.125-7.35c0-12.658333 2.84375-23.902083 8.53125-33.73125 5.6875-9.829167 13.509635-17.5875 23.466406-23.275s21.229688-8.53125 33.81875-8.53125c12.589063 0 23.769011 2.8291667 33.539844 8.4875 9.770833 5.6583333 17.427083 13.489583 22.96875 23.49375 5.541667 10.004167 8.3125 21.56875 8.3125 34.69375V465h-31.5875Zm-117.5125 0V215.1h31.5875V465H1122.85Zm258.625 3.5c-16.625 0-31.558333-3.7625-44.8-11.2875-13.241667-7.525-23.7125-17.864583-31.4125-31.01875-7.7-13.154167-11.55-27.95625-11.55-44.40625 0-16.391667 3.777083-31.10625 11.33125-44.14375 7.554167-13.0375 17.835417-23.3625 30.84375-30.975 13.008333-7.6125 27.504167-11.41875 43.4875-11.41875 15.341667 0 28.904167 3.5145833 40.6875 10.54375 11.783333 7.0291667 21.04375 16.697917 27.78125 29.00625 6.7375 12.308333 10.10625 26.366667 10.10625 42.175 0 2.333333-.145833 4.841667-.4375 7.525s-.758333 5.716667-1.4 9.1H1315.85v-26.1625h123.55L1427.85 377.5c-.116667-11.141667-2.129167-20.65-6.0375-28.525s-9.479167-13.95625-16.7125-18.24375c-7.233333-4.2875-16.0125-6.43125-26.3375-6.43125-10.85 0-20.314583 2.347917-28.39375 7.04375-8.079167 4.695833-14.35 11.24375-18.8125 19.64375s-6.69375 18.345833-6.69375 29.8375c0 11.608333 2.347917 21.7875 7.04375 30.5375s11.33125 15.53125 19.90625 20.34375 18.491667 7.21875 29.75 7.21875c9.275 0 17.85-1.6625 25.725-4.9875 7.875-3.325 14.554167-8.225 20.0375-14.7l20.2125 20.475c-7.933333 9.333333-17.660417 16.464583-29.18125 21.39375S1394.541667 468.5 1381.475 468.5Zm280.7375-3.5v-96.775c0-12.775-3.922917-23.216667-11.76875-31.325-7.845833-8.108333-18.046875-12.1625-30.603125-12.1625-8.545833 0-16.089063 1.852083-22.629688 5.55625-6.540625 3.704167-11.66302 8.822917-15.367187 15.35625-3.704167 6.533333-5.55625 14.029167-5.55625 22.4875l-13.125-7.35c0-12.658333 2.84375-23.902083 8.53125-33.73125 5.6875-9.829167 13.509635-17.5875 23.466406-23.275s21.229688-8.53125 33.81875-8.53125c12.589063 0 23.769011 3.1354167 33.539844 9.40625 9.770833 6.2708333 17.427083 14.495833 22.96875 24.675 5.541667 10.179167 8.3125 21.04375 8.3125 32.59375V465h-31.5875ZM1544.7 465V298.75h31.5875V465H1544.7Zm258.625 3.5c-16.625 0-31.558333-3.7625-44.8-11.2875-13.241667-7.525-23.7125-17.864583-31.4125-31.01875-7.7-13.154167-11.55-27.95625-11.55-44.40625 0-16.391667 3.777083-31.10625 11.33125-44.14375 7.554167-13.0375 17.835417-23.3625 30.84375-30.975 13.008333-7.6125 27.504167-11.41875 43.4875-11.41875 15.341667 0 28.904167 3.5145833 40.6875 10.54375 11.783333 7.0291667 21.04375 16.697917 27.78125 29.00625 6.7375 12.308333 10.10625 26.366667 10.10625 42.175 0 2.333333-.145833 4.841667-.4375 7.525s-.758333 5.716667-1.4 9.1H1737.7v-26.1625h123.55L1849.7 377.5c-.116667-11.141667-2.129167-20.65-6.0375-28.525s-9.479167-13.95625-16.7125-18.24375c-7.233333-4.2875-16.0125-6.43125-26.3375-6.43125-10.85 0-20.314583 2.347917-28.39375 7.04375-8.079167 4.695833-14.35 11.24375-18.8125 19.64375s-6.69375 18.345833-6.69375 29.8375c0 11.608333 2.347917 21.7875 7.04375 30.5375s11.33125 15.53125 19.90625 20.34375 18.491667 7.21875 29.75 7.21875c9.275 0 17.85-1.6625 25.725-4.9875 7.875-3.325 14.554167-8.225 20.0375-14.7l20.2125 20.475c-7.933333 9.333333-17.660417 16.464583-29.18125 21.39375S1816.391667 468.5 1803.325 468.5Zm146.0125-3.5L1883.8 298.75h32.8125L1964.3 428.1625l-10.5.2625 47.075-129.675h18.375l47.075 129.675-10.5-.2625 47.6875-129.4125h32.8125L2070.7875 465h-18.4625l-48.0375-125.475h11.55L1967.8 465zm337.875 3.5c-15.225 0-28.92878-3.803516-41.11133-11.410547-12.18255-7.607031-21.82213-17.932031-28.91875-30.975-7.09661-13.042969-10.64492-27.691016-10.64492-43.944141 0-16.49375 3.54375-31.253906 10.63125-44.280468 7.0875-13.026563 16.72526-23.389844 28.91328-31.089844 12.18802-7.7 25.89818-11.55 41.13047-11.55 12.54167 0 23.81458 2.6104167 33.81875 7.83125 10.00417 5.2208333 18.1125 12.46875 24.325 21.74375 6.2125 9.275 9.63958 19.95 10.28125 32.025v49.9625c-.7 11.958333-4.08333 22.589583-10.15 31.89375s-14.13125 16.595833-24.19375 21.875c-10.0625 5.279167-21.42292 7.91875-34.08125 7.91875Zm5.25-29.8375c10.5 0 19.67747-2.420833 27.53242-7.2625 7.85495-4.841667 13.99453-11.520833 18.41875-20.0375 4.42422-8.516667 6.63633-18.316667 6.63633-29.4 0-11.269271-2.2349-21.151302-6.70469-29.646094-4.46979-8.494791-10.63854-15.15664-18.50625-19.985547-7.86771-4.828906-17.03698-7.243359-27.50781-7.243359s-19.68112 2.422656-27.63086 7.267969c-7.94974 4.845312-14.22057 11.529036-18.8125 20.051172C2241.29596 360.928776 2239 370.751562 2239 381.875c0 11.083333 2.28229 20.908854 6.84687 29.476562 4.56459 8.567709 10.88555 15.261459 18.9629 20.08125 8.07734 4.819792 17.29492 7.229688 27.65273 7.229688Zm82.25 26.3375h-31.5875v-44.625l5.8625-40.6875-5.8625-40.1625V215.1h31.5875V465Zm113.025 3.5c-16.625 0-31.55833-3.7625-44.8-11.2875-13.24167-7.525-23.7125-17.864583-31.4125-31.01875-7.7-13.154167-11.55-27.95625-11.55-44.40625 0-16.391667 3.77708-31.10625 11.33125-44.14375 7.55417-13.0375 17.83542-23.3625 30.84375-30.975 13.00833-7.6125 27.50417-11.41875 43.4875-11.41875 15.34167 0 28.90417 3.5145833 40.6875 10.54375 11.78333 7.0291667 21.04375 16.697917 27.78125 29.00625 6.7375 12.308333 10.10625 26.366667 10.10625 42.175 0 2.333333-.14583 4.841667-.4375 7.525s-.75833 5.716667-1.4 9.1h-140.2625v-26.1625h123.55l-11.55 10.0625c-.11667-11.141667-2.12917-20.65-6.0375-28.525s-9.47917-13.95625-16.7125-18.24375c-7.23333-4.2875-16.0125-6.43125-26.3375-6.43125-10.85 0-20.31458 2.347917-28.39375 7.04375-8.07917 4.695833-14.35 11.24375-18.8125 19.64375s-6.69375 18.345833-6.69375 29.8375c0 11.608333 2.34792 21.7875 7.04375 30.5375 4.69583 8.75 11.33125 15.53125 19.90625 20.34375s18.49167 7.21875 29.75 7.21875c9.275 0 17.85-1.6625 25.725-4.9875 7.875-3.325 14.55417-8.225 20.0375-14.7l20.2125 20.475c-7.93333 9.333333-17.66042 16.464583-29.18125 21.39375S2500.80417 468.5 2487.7375 468.5Zm188.1 0c-12.65833 0-24.01875-2.639583-34.08125-7.91875-10.0625-5.279167-18.12708-12.570833-24.19375-21.875-6.06667-9.304167-9.45-19.935417-10.15-31.89375V356.85c.7-12.075 4.14167-22.75 10.325-32.025 6.18333-9.275 14.32083-16.5229167 24.4125-21.74375 10.09167-5.2208333 21.32083-7.83125 33.6875-7.83125 15.225 0 28.93333 3.85 41.125 11.55 12.19167 7.7 21.83125 18.083333 28.91875 31.15 7.0875 13.066667 10.63125 27.825 10.63125 44.275 0 16.216667-3.52917 30.84375-10.5875 43.88125-7.05833 13.0375-16.69792 23.3625-28.91875 30.975-12.22083 7.6125-25.94375 11.41875-41.16875 11.41875Zm-87.5-3.5V215.1h31.5875v124.425l-5.8625 40.1625 5.8625 40.6875V465h-31.5875Zm82.25-26.3375c10.5 0 19.74583-2.40625 27.7375-7.21875 7.99167-4.8125 14.27708-11.50625 18.85625-20.08125 4.57917-8.575 6.86875-18.404167 6.86875-29.4875 0-11.141667-2.28958-20.985417-6.86875-29.53125-4.57917-8.545833-10.85-15.225-18.8125-20.0375-7.9625-4.8125-17.13542-7.21875-27.51875-7.21875s-19.57083 2.40625-27.5625 7.21875c-7.99167 4.8125-14.20417 11.491667-18.6375 20.0375-4.43333 8.545833-6.65 18.41875-6.65 29.61875 0 11.083333 2.20208 20.897917 6.60625 29.44375 4.40417 8.545833 10.5875 15.225 18.55 20.0375 7.9625 4.8125 17.10625 7.21875 27.43125 7.21875Zm178.65 29.8375c-13.75573 0-26.04674-3.10625-36.87305-9.31875-10.8263-6.2125-19.2582-14.788411-25.2957-25.727734-6.0375-10.939323-9.05625-23.622266-9.05625-38.048828V298.75H2809.6v95.2875c0 9.1 1.575 16.945833 4.725 23.5375 3.15 6.591667 7.72917 11.68125 13.7375 15.26875 6.00833 3.5875 13.09583 5.38125 21.2625 5.38125 12.425 0 22.12292-3.922917 29.09375-11.76875 6.97083-7.845833 10.45625-18.652083 10.45625-32.41875V298.75h31.5875v96.6875c0 14.466667-3.01875 27.197917-9.05625 38.19375-6.0375 10.995833-14.4056 19.55625-25.1043 25.68125-10.69869 6.125-23.05351 9.1875-37.06445 9.1875Zm172.4375 69.65c-17.15 0-32.2875-3.135417-45.4125-9.40625S2952.55 513.591667 2944.5 502.1l20.5625-20.5625c6.65 8.575 14.64167 15.1375 23.975 19.6875 9.33333 4.55 20.41667 6.825 33.25 6.825 16.975 0 30.43542-4.4625 40.38125-13.3875 9.94583-8.925 14.91875-21.058333 14.91875-36.4V417.05l5.775-37.275-5.775-37.275v-43.75h31.5875v159.5125c0 15.983333-3.675 29.939583-11.025 41.86875-7.35 11.929167-17.60208 21.247917-30.75625 27.95625S3039 538.15 3021.675 538.15Zm0-75.775c-15.10833 0-28.7-3.645833-40.775-10.9375s-21.58333-17.295833-28.525-30.0125c-6.94167-12.716667-10.4125-27.008333-10.4125-42.875 0-15.808333 3.45625-29.983333 10.36875-42.525 6.9125-12.541667 16.40625-22.4729167 28.48125-29.79375S3006.45 295.25 3021.5 295.25c13.06667 0 24.63125 2.58125 34.69375 7.74375 10.0625 5.1625 18.05417 12.3375 23.975 21.525 5.92083 9.1875 9.20208 19.964583 9.84375 32.33125v44.0125c-.7 12.133333-4.05417 22.8375-10.0625 32.1125-6.00833 9.275-14.01458 16.49375-24.01875 21.65625-10.00417 5.1625-21.42292 7.74375-34.25625 7.74375Zm6.125-29.8375c10.325 0 19.38125-2.23125 27.16875-6.69375 7.7875-4.4625 13.825-10.71875 18.1125-18.76875 4.2875-8.05 6.43125-17.470833 6.43125-28.2625 0-10.733333-2.15833-20.110417-6.475-28.13125s-10.36875-14.291667-18.15625-18.8125-16.87292-6.78125-27.25625-6.78125c-10.44167 0-19.67292 2.260417-27.69375 6.78125s-14.27708 10.791667-18.76875 18.8125c-4.49167 8.020833-6.7375 17.36875-6.7375 28.04375 0 10.5 2.26042 19.833333 6.78125 28s10.79167 14.510417 18.8125 19.03125S3017.3 432.5375 3027.8 432.5375ZM3295.2375 468.5c-12.65833 0-24.01875-2.639583-34.08125-7.91875-10.0625-5.279167-18.12708-12.570833-24.19375-21.875-6.06667-9.304167-9.45-19.935417-10.15-31.89375V356.85c.7-12.075 4.14167-22.75 10.325-32.025 6.18333-9.275 14.32083-16.5229167 24.4125-21.74375 10.09167-5.2208333 21.32083-7.83125 33.6875-7.83125 15.225 0 28.93333 3.85 41.125 11.55 12.19167 7.7 21.83125 18.083333 28.91875 31.15 7.0875 13.066667 10.63125 27.825 10.63125 44.275 0 16.216667-3.52917 30.84375-10.5875 43.88125-7.05833 13.0375-16.69792 23.3625-28.91875 30.975-12.22083 7.6125-25.94375 11.41875-41.16875 11.41875Zm-87.5-3.5V215.1h31.5875v124.425l-5.8625 40.1625 5.8625 40.6875V465h-31.5875Zm82.25-26.3375c10.5 0 19.74583-2.40625 27.7375-7.21875 7.99167-4.8125 14.27708-11.50625 18.85625-20.08125 4.57917-8.575 6.86875-18.404167 6.86875-29.4875 0-11.141667-2.28958-20.985417-6.86875-29.53125-4.57917-8.545833-10.85-15.225-18.8125-20.0375-7.9625-4.8125-17.13542-7.21875-27.51875-7.21875s-19.57083 2.40625-27.5625 7.21875c-7.99167 4.8125-14.20417 11.491667-18.6375 20.0375-4.43333 8.545833-6.65 18.41875-6.65 29.61875 0 11.083333 2.20208 20.897917 6.60625 29.44375 4.40417 8.545833 10.5875 15.225 18.55 20.0375 7.9625 4.8125 17.10625 7.21875 27.43125 7.21875ZM3472.4 468.5c-15.34167 0-29.16667-3.80625-41.475-11.41875-12.30833-7.6125-22.03542-17.9375-29.18125-30.975-7.14583-13.0375-10.71875-27.664583-10.71875-43.88125 0-16.391667 3.57292-31.120833 10.71875-44.1875 7.14583-13.066667 16.85833-23.4645833 29.1375-31.19375S3456.94167 295.25 3472.225 295.25c12.71667 0 24.03333 2.625 33.95 7.875 9.91667 5.25 17.89375 12.5125 23.93125 21.7875 6.0375 9.275 9.37708 19.920833 10.01875 31.9375v49.9625c-.7 12.016667-4.025 22.677083-9.975 31.98125-5.95 9.304167-13.89792 16.58125-23.84375 21.83125S3485.05833 468.5 3472.4 468.5Zm5.075-29.8375c15.69167 0 28.30625-5.264583 37.84375-15.79375 9.5375-10.529167 14.30625-24.164583 14.30625-40.90625 0-11.258333-2.17292-21.160417-6.51875-29.70625-4.34583-8.545833-10.44167-15.210417-18.2875-19.99375-7.84583-4.783333-17.01875-7.175-27.51875-7.175s-19.775 2.420833-27.825 7.2625-14.39375 11.535417-19.03125 20.08125c-4.6375 8.545833-6.95625 18.360417-6.95625 29.44375s2.31875 20.897917 6.95625 29.44375c4.6375 8.545833 11.01042 15.239583 19.11875 20.08125 8.10833 4.841667 17.4125 7.2625 27.9125 7.2625ZM3527.7 465v-44.625l5.775-40.6875-5.775-40.1625V298.75h31.5875V465H3527.7Zm67.6125 0V298.75H3626.9V465h-31.5875Zm31.5875-94.675-11.8125-5.5125c0-21.058333 4.9-37.916667 14.7-50.575 9.8-12.6583333 23.91667-18.9875 42.35-18.9875 8.28333 0 15.82292 1.4875 22.61875 4.4625 6.79583 2.975 13.11042 7.7583333 18.94375 14.35L3692.9625 335.5c-3.5-3.791667-7.36458-6.504167-11.59375-8.1375-4.22917-1.633333-9.11458-2.45-14.65625-2.45-11.60833 0-21.14583 3.747917-28.6125 11.24375-7.46667 7.495833-11.2 18.885417-11.2 34.16875Z"/></g></svg>
